<svg xmlns="http://www.w3.org/2000/svg" xmlns:xlink="http://www.w3.org/1999/xlink" viewBox="0 0 514.48 520.3">
  <style>
    #Cutlery { transform-origin: center; }
  </style>
<defs>
<style>.cls-1{fill:#998675;}.cls-2{fill:url(#New_Gradient_Swatch);}.cls-3{fill:url(#New_Gradient_Swatch-2);}.cls-4{fill:url(#New_Gradient_Swatch-3);}</style>

<linearGradient id="New_Gradient_Swatch" x1="256.92" y1="258.76" x2="197.47" y2="318.21" gradientUnits="userSpaceOnUse">

<stop offset="0" stop-color="#fda35a"/>
<stop offset="0.53" stop-color="#fda158"/>
<stop offset="0.75" stop-color="#fd9a53"/>
<stop offset="0.92" stop-color="#fd8d49"/>
<stop offset="1" stop-color="#fd8543"/>

</linearGradient>

<linearGradient id="New_Gradient_Swatch-2" x1="322.85" y1="95.99" x2="418.42" y2="191.56" xlink:href="#New_Gradient_Swatch"/>
<linearGradient id="New_Gradient_Swatch-3" x1="95.06" y1="389.63" x2="124.85" y2="419.42" xlink:href="#New_Gradient_Swatch"/>

</defs>

<g id="Container" data-name="Container">
<g id="Arrows" data-name="Arrows">
<animateTransform attributeName="transform"
                          attributeType="XML"
                          type="rotate"
                          from="0 253.5 279"
                          to="360 253.5 279"
                          dur="5s"
                          repeatCount="indefinite"/>
<path class="cls-1" d="M322.3,498c3.63,10.61,6.25,16.22,6.25,16.22-47.95-5.29-96.07-39.67-96.07-39.67s45.22-29,73.18-60.16a206.75,206.75,0,0,0,1.82,21.29A165.17,165.17,0,0,0,419.62,283,169,169,0,0,0,299.2,117s25-24.87,32.73-21.78c87.32,34.79,145,109.64,142.57,206C472,400.26,414.46,471.08,322.3,498Z"/>
<path class="cls-1" d="M316.51,499.63c2.07,6,4.21,11.93,6.86,17.66l5.18-9C306,505.63,284.34,497,264.36,486.64a240.69,240.69,0,0,1-28.85-17.23v10.36c26.78-17.22,53-37.47,74.39-61.1l-10.24-4.24a197.21,197.21,0,0,0,1.82,21.29c.46,3.58,3.51,7.18,7.6,5.78,54.54-18.62,97.05-64,111.26-120s-1-116.44-39.44-159.46a175.84,175.84,0,0,0-80.1-50.79l2.64,10c7.32-7.26,15.87-16,25.54-19.91,0,0,2.13-.47.91-.36.33,0,1.16.1,0-.11,1.9.33,3.88,1.52,5.65,2.28q7.17,3.06,14.15,6.57a249.16,249.16,0,0,1,26.45,15.3c31.45,20.91,57.41,49.65,73.62,83.86,32.34,68.23,23.59,158.2-24.7,216.94-26.89,32.7-64,54.5-104.33,66.4-7.39,2.19-4.25,13.77,3.19,11.57,38.51-11.37,74.7-31.34,102.18-61C453,413.82,470.23,377,476.9,338.1c7.19-42,4-85.84-12.4-125.32-15.72-37.78-42.37-69.69-75.56-93.43a246.52,246.52,0,0,0-29.46-18q-8.14-4.26-16.59-7.93c-4.2-1.83-8.87-4.65-13.58-4.3-8,.6-15.42,7.2-21.3,12A174.54,174.54,0,0,0,295,112.8a6.05,6.05,0,0,0,2.65,10c50.86,15.41,92,55.46,108.25,106.16,16.4,51.18,6.3,109-27.88,150.79a160.23,160.23,0,0,1-72.09,50.16l7.59,5.79a197.21,197.21,0,0,1-1.82-21.29c-.09-5-6.65-8.22-10.25-4.24-20.74,22.91-46,42.52-72,59.22-4,2.58-3.7,7.73,0,10.36,28.74,20.47,64,36.38,99.1,40.49,5,.58,6.85-5.41,5.18-9-2.12-4.59-3.93-9.82-5.64-14.79C325.58,489.19,314,492.31,316.51,499.63Z"/>
<path class="cls-1" d="M207.41,440.63s-25,24.88-32.72,21.79c-87.32-34.79-145-109.64-142.58-206,2.49-99,60-169.86,152.2-196.8-3.64-10.62-6.25-16.23-6.25-16.23C226,48.7,274.13,83.07,274.13,83.07S233.38,109,201,143.25A205.41,205.41,0,0,0,199.13,122,165.17,165.17,0,0,0,87,274.69,169,169,0,0,0,207.41,440.63Z"/>
<path class="cls-1" d="M203.17,436.39c-7.31,7.26-15.87,16-25.53,19.91-.06,0-2.14.47-.92.36-.32,0-1.16-.09,0,.12-1.9-.34-3.87-1.53-5.65-2.28q-7.17-3.08-14.15-6.57a252,252,0,0,1-26.45-15.31C99,411.71,73.09,383,56.87,348.76c-32.34-68.23-23.58-158.2,24.71-216.94,26.88-32.7,64-54.49,104.33-66.4,3-.87,5.27-4.26,4.19-7.38-2.07-5.95-4.22-11.93-6.86-17.65l-5.18,9c22.5,2.64,44.21,11.24,64.19,21.62a241.6,241.6,0,0,1,28.86,17.23V77.89A402.07,402.07,0,0,0,196.72,139L207,143.25A199.57,199.57,0,0,0,205.13,122c-.45-3.58-3.5-7.18-7.59-5.79-54.55,18.62-97,64-111.27,120s1,116.45,39.44,159.46a175.71,175.71,0,0,0,80.11,50.78c7.41,2.25,10.57-9.33,3.19-11.57-50.86-15.39-92-55.45-108.25-106.14-16.41-51.19-6.3-109,27.87-150.79a160.21,160.21,0,0,1,72.1-50.17l-7.6-5.78A199.57,199.57,0,0,1,195,143.25c.09,5.06,6.57,8.09,10.24,4.24a389,389,0,0,1,72-59.23c4-2.57,3.69-7.74,0-10.37-28.74-20.46-64-36.36-99.1-40.48-5-.58-6.85,5.42-5.18,9,2.12,4.59,3.93,9.83,5.65,14.79l4.19-7.38C144.2,65.22,108,85.19,80.53,114.82c-26.92,29-44.15,65.82-50.82,104.75-7.19,41.95-4,85.84,12.41,125.32,15.71,37.78,42.37,69.69,75.56,93.43a245.68,245.68,0,0,0,29.45,18.05q8.16,4.25,16.59,7.92c4.21,1.83,8.87,4.65,13.59,4.3,7.95-.59,15.41-7.2,21.3-12,4.53-3.68,8.9-7.6,13-11.72C217.14,439.42,208.66,430.93,203.17,436.39Z"/>
</g>

<g id="Cutlery" data-name="Cutlery">
    <animateTransform 
             id="shrink"
             attributeName="transform"
             type="scale"
             additive="sum" 
             attributeType="XML"
             from=".5 .5" to="1 1"
             begin="0s; grow.end" dur="1s"
             repeatCount="1"/>
    <animateTransform 
             id="grow"
             attributeName="transform"
             type="scale"
             additive="sum" 
             attributeType="XML"
             from="1 1" to=".5 .5"
             begin="shrink.end" dur="1.5s"
             repeatCount="1"/>
<path class="cls-2" d="M483.07,493.92c.16,13.38-11.5,22.78-24.55,19.83-7.53-1.7-12.85-6.09-17.7-12-5.14-6.26-11.34-11.66-17.1-17.42q-40.12-40.09-80.25-80.18-42-42-84.06-84.07c-10.84-10.84-23.9-17.41-38.68-21.3A112.66,112.66,0,0,1,197.82,290c-13.81-7.15-27.6-14.5-40.66-22.91-20.79-13.39-39.67-29.35-57.39-46.61a411.92,411.92,0,0,1-48.4-56.29C39.08,146.9,28.2,128.72,20,109.1,13.88,94.38,9.14,79.27,8.6,63.09c-.36-11.15.51-21.89,6.48-31.78,3.84-6.38,7.21-7.09,12.49-1.82l181.6,181.62Q286.24,288.2,363.28,365.3,417.57,419.6,472,473.8c4.48,4.44,8.65,8.76,10.22,15C482.6,490.48,482.78,492.21,483.07,493.92Z"/>
<path class="cls-3" d="M486.77,49.27c2.72,1.48,2.83,3,1.59,4.94-3.64,5.55-6.72,11.57-11,16.58C463.5,87,449.43,103.13,435,118.89c-12.28,13.42-25.15,26.3-37.72,39.45-2.26,2.36-4.34,4.87-6.46,7.35-2.43,2.83-2.16,6.12-.87,9.15a7.56,7.56,0,0,0,8.46,4.17,13.17,13.17,0,0,0,5.47-3.37c24.36-23.72,48.46-47.71,73-71.21,9.39-9,19.81-16.85,29.8-25.18a15.66,15.66,0,0,1,4.09-2.47c.92-.36,2.54-.49,3.05,0a3.33,3.33,0,0,1,.37,3.12c-2.41,4.19-4.61,8.63-7.71,12.27-17.63,20.71-35.22,41.45-53.34,61.71-14.49,16.2-29.61,31.84-44.68,47.52-10.28,10.71-22.77,18.38-36.56,23.64A82.75,82.75,0,0,1,337,230.39c-11.1-.68-21.75,1.24-30.63,8.07-6.55,5-12.13,11.37-18.11,17.14-2.25,2.18-4.34,4.54-6.71,6.56a3.11,3.11,0,0,1-3,0c-9.39-9.05-18.66-18.22-28.55-27.94,7.71-7.44,15.09-14.36,22.24-21.52,7.8-7.81,11.29-17.63,12-28.43.35-5.47,0-11,.06-16.47.27-14,5.05-26.75,11.57-38.95,8.64-16.18,22.07-28.16,35.29-40.33,18.74-17.23,37.2-34.77,56.3-51.59,13.3-11.71,27.46-22.45,41.3-33.53A25.15,25.15,0,0,1,434.5.32c.83-.36,2.62-.44,2.76-.12.45,1.07.87,2.64.39,3.54a38.76,38.76,0,0,1-4.92,7.45C420.27,25.44,408.1,40,395.07,53.66c-18.57,19.52-37.81,38.4-56.75,57.57-3.69,3.73-3.82,8.59-.41,12s7.92,3.08,11.72-.48c23-21.46,45.75-43.13,69-64.27,11.5-10.44,23.89-19.92,36-29.73a16.9,16.9,0,0,1,5.7-3.05c2.93-.86,4.29.59,2.79,3.17a104.37,104.37,0,0,1-9.43,13.92c-27.46,33.33-57.78,64-88.24,94.55-4.06,4.08-4.53,8.14-1.26,12a8.06,8.06,0,0,0,11.68.69c10.62-10.43,21-21,31.71-31.4,8.21-8,16.62-15.72,25.1-23.4C444,85,455.34,74.71,466.93,64.73,473.29,59.26,480.16,54.38,486.77,49.27Z"/>
<path class="cls-4" d="M229,315.25c-9,8.86-17.56,17.18-26,25.62Q123.61,420.25,44.19,499.64c-4.55,4.54-9.19,9.45-14.74,12.42C18.83,517.75,5,513.54,1.1,500.44c-2.29-7.68-1.21-15.73,5.2-22q29.34-28.93,58.57-58,51-51,101.78-102.09,9.07-9.09,18.38-17.94a3.25,3.25,0,0,1,2.91-.48,229.66,229.66,0,0,0,37.68,13.87A31.92,31.92,0,0,1,229,315.25Z"/>
</g>
</g>
</svg>

